<?xml version="1.0" encoding="UTF-8"?>
<svg version="1.1" xmlns="http://www.w3.org/2000/svg" width="569" height="556">
<path d="M0 0 C0.99 0.33 1.98 0.66 3 1 C3 1.66 3 2.32 3 3 C1 4.625 1 4.625 -1 6 C-0.58620645 8.89655484 -0.17769233 10.7516806 1.54296875 13.15625 C3.47026227 16.91783093 3.20354607 20.21019481 3 24.3125 C2.83403882 30.67974226 3.19626249 35.17685287 6 41 C6.2165625 42.7325 6.2165625 42.7325 6.4375 44.5 C8.6266194 49.40362746 12.03225897 50.86573701 16.5078125 53.65625 C36.18074684 66.37859985 48.27513429 86.65834459 54 109 C54.88730946 113.35012104 55.10776988 117.43855152 55.0625 121.875 C55.05347656 123.02742188 55.04445313 124.17984375 55.03515625 125.3671875 C55.01775391 126.67042969 55.01775391 126.67042969 55 128 C54.34 128 53.68 128 53 128 C52.85304688 126.98164063 52.70609375 125.96328125 52.5546875 124.9140625 C50.12948133 109.16902243 47.3952992 93.96295351 35 83 C35 84.65 35 86.3 35 88 C31.83174161 85.69581208 29.30119826 83.24587374 26.8125 80.25 C22.78132349 75.53662439 18.18956479 71.41132231 13 68 C12.01 68 11.02 68 10 68 C7.8125 67 7.8125 67 6 66 C4.11156227 67.88843773 4.60251016 71.09484421 4.4375 73.625 C4.39286621 74.29072021 4.34823242 74.95644043 4.30224609 75.64233398 C3.93610388 81.66530273 4.03517431 87.62928052 4.2578125 93.66015625 C3.89378271 98.37599673 2.33766661 101.66233339 -1 105 C-1.24253813 107.21072977 -1.24253813 107.21072977 -1.125 109.625 C-1.10695313 110.44226563 -1.08890625 111.25953125 -1.0703125 112.1015625 C-1.04710937 112.72804688 -1.02390625 113.35453125 -1 114 C-0.01 114 0.98 114 2 114 C1.83483887 114.57580811 1.66967773 115.15161621 1.49951172 115.74487305 C1.00503556 117.97726615 0.92735037 119.80484628 1.0078125 122.08203125 C1.02457031 122.84966797 1.04132813 123.61730469 1.05859375 124.40820312 C1.10254769 125.99959427 1.15451456 127.5907861 1.21484375 129.18164062 C1.31418094 134.58648655 0.46097732 138.17468059 -2 143 C-2.66 142.67 -3.32 142.34 -4 142 C-3.67 138.37 -3.34 134.74 -3 131 C-3.99 130.67 -4.98 130.34 -6 130 C-6 136.6 -6 143.2 -6 150 C-1.545 149.01 -1.545 149.01 3 148 C5.68310547 147.83300781 5.68310547 147.83300781 7.8671875 147.953125 C8.68501709 147.99445557 9.50284668 148.03578613 10.34545898 148.07836914 C11.18020752 148.13500732 12.01495605 148.19164551 12.875 148.25 C13.74906494 148.3008374 14.62312988 148.3516748 15.52368164 148.40405273 C21.03835605 148.76104429 26.40912029 149.3789942 31.80859375 150.59765625 C34.2441886 151.0448332 36.52904953 151.06536906 39 151 C39.25394531 150.19175781 39.50789062 149.38351563 39.76953125 148.55078125 C40.28580078 146.94783203 40.28580078 146.94783203 40.8125 145.3125 C41.14894531 144.25675781 41.48539063 143.20101562 41.83203125 142.11328125 C42.94855403 139.13713191 44.37137946 136.71436756 46 134 C46.71923208 130.30476048 46.71923208 130.30476048 47 127 C47.66 127 48.32 127 49 127 C49.83042381 133.16886256 50.10822827 139.28327832 50.125 145.5 C50.13176758 146.55960937 50.13176758 146.55960937 50.13867188 147.640625 C50.12381213 152.75237573 50.12381213 152.75237573 49 155 C49.96421875 155.13277344 50.9284375 155.26554688 51.921875 155.40234375 C53.18515625 155.57894531 54.4484375 155.75554687 55.75 155.9375 C57.00296875 156.11152344 58.2559375 156.28554687 59.546875 156.46484375 C62.09982593 156.86049338 64.5186291 157.30446422 67 158 C66.67 158.99 66.34 159.98 66 161 C64.97519531 160.98839844 63.95039063 160.97679687 62.89453125 160.96484375 C61.533856 160.95545978 60.17317876 160.94636023 58.8125 160.9375 C58.13896484 160.92912109 57.46542969 160.92074219 56.77148438 160.91210938 C53.04565869 160.89393462 49.6211958 161.10700608 46 162 C46.33 163.98 46.66 165.96 47 168 C46.44054687 168.03867188 45.88109375 168.07734375 45.3046875 168.1171875 C41.83727809 169.44538161 40.22277597 172.2067051 38.125 175.125 C37.23711611 176.3213818 36.34780345 177.51670465 35.45703125 178.7109375 C35.03244629 179.28424805 34.60786133 179.85755859 34.17041016 180.44824219 C32.36438432 182.84271449 30.40263362 185.08217371 28.41796875 187.328125 C26.72781312 189.32092558 25.18821761 191.40634226 23.625 193.5 C15.71176027 203.69391144 4.70588498 210.77415849 -7 216 C-7.99 216 -8.98 216 -10 216 C-10.14695312 217.00740234 -10.14695312 217.00740234 -10.296875 218.03515625 C-11.99658872 229.39100223 -14.00887298 240.69231139 -16 252 C-16.99 252 -17.98 252 -19 252 C-18.96519531 251.04738281 -18.93039062 250.09476563 -18.89453125 249.11328125 C-18.86746094 247.85902344 -18.84039062 246.60476563 -18.8125 245.3125 C-18.77769531 244.07113281 -18.74289062 242.82976562 -18.70703125 241.55078125 C-19.0153171 237.81435679 -19.81911727 235.99370517 -22 233 C-23.32 233.33 -24.64 233.66 -26 234 C-26.33 230.04 -26.66 226.08 -27 222 C-28.37929688 222.2165625 -29.75859375 222.433125 -31.1796875 222.65625 C-64.0593738 227.61483511 -102.44086288 225.70997125 -130.75 206.25 C-132.17792634 205.18155162 -133.59578448 204.09942455 -135 203 C-136.33222999 201.99853056 -137.66522505 200.99807496 -139 200 C-139 201.98 -139 203.96 -139 206 C-140.65 206 -142.3 206 -144 206 C-144 206.66 -144 207.32 -144 208 C-144.61875 208.226875 -145.2375 208.45375 -145.875 208.6875 C-148.67417035 210.41639933 -149.10812102 211.87842357 -150 215 C-150 216.32 -150 217.64 -150 219 C-153 219 -153 219 -155.4375 218.625 C-158.34773339 218.74663398 -158.34773339 218.74663398 -160.25 221.9375 C-160.8275 222.948125 -161.405 223.95875 -162 225 C-163 226 -163 226 -165.5625 226.0625 C-166.366875 226.041875 -167.17125 226.02125 -168 226 C-168.33 226.99 -168.66 227.98 -169 229 C-169.99 229 -170.98 229 -172 229 C-172.95016453 217.98073074 -172.51218108 211.42597899 -165.90234375 202.12109375 C-163.30039113 197.85218175 -162.85885651 194.00954877 -162.36328125 189.1015625 C-161.82990701 184.54780824 -160.46587265 180.32921057 -159 176 C-160.62339805 174.29115995 -162.29319053 172.62553283 -164 171 C-164.66 171 -165.32 171 -166 171 C-168.1491917 167.77621244 -169.024994 165.01585352 -170.125 161.3125 C-170.47820312 160.13300781 -170.83140625 158.95351562 -171.1953125 157.73828125 C-171.46085937 156.83464844 -171.72640625 155.93101562 -172 155 C-173.32 155 -174.64 155 -176 155 C-176 154.34 -176 153.68 -176 153 C-176.66 153 -177.32 153 -178 153 C-178.33 151.68 -178.66 150.36 -179 149 C-181.64 148.67 -184.28 148.34 -187 148 C-187.33 146.68 -187.66 145.36 -188 144 C-189.32 144 -190.64 144 -192 144 C-192 143.01 -192 142.02 -192 141 C-191.45730469 140.73445312 -190.91460937 140.46890625 -190.35546875 140.1953125 C-189.28232422 139.66550781 -189.28232422 139.66550781 -188.1875 139.125 C-187.12595703 138.60292969 -187.12595703 138.60292969 -186.04296875 138.0703125 C-183.78753582 136.9343514 -183.78753582 136.9343514 -181 135 C-179.68 135 -178.36 135 -177 135 C-177.10699219 134.2471875 -177.21398437 133.494375 -177.32421875 132.71875 C-178.7105369 120.43567306 -177.0865523 106.98712197 -171 96 C-169.375 94.23828125 -169.375 94.23828125 -168 93 C-168.38142133 97.95847731 -169.31335137 102.12532791 -171 106.8125 C-173.2468514 113.25075055 -175.21726533 120.348204 -173 127 C-172.94054199 126.4423999 -172.88108398 125.8847998 -172.81982422 125.31030273 C-171.44217687 112.96095013 -169.42867883 102.2317493 -164 91 C-163.55914062 90.0409375 -163.11828125 89.081875 -162.6640625 88.09375 C-151.40881068 65.45312783 -128.64308033 49.26280105 -105.2277832 41.0246582 C-96.37488501 38.14460133 -87.46349967 36.39249314 -78.3125 34.8125 C-77.56564941 34.67905182 -76.81879883 34.54560364 -76.04931641 34.40811157 C-67.51466089 32.88486567 -59.19203477 31.69230701 -50.5 31.6875 C-45.1336741 31.62011957 -41.9224636 30.86264146 -37.875 27.125 C-37.12089844 26.3103125 -36.36679687 25.495625 -35.58984375 24.65625 C-32.47930217 21.46595094 -29.12610604 19.09881156 -25.4375 16.625 C-24.43046021 15.94703369 -24.43046021 15.94703369 -23.40307617 15.25537109 C-22.00486265 14.31993844 -20.60416764 13.38820561 -19.20117188 12.45996094 C-16.89023423 10.92719617 -14.59378972 9.37399636 -12.296875 7.8203125 C-10.76121275 6.79568086 -9.22477464 5.77221094 -7.6875 4.75 C-6.96425537 4.25967285 -6.24101074 3.7693457 -5.49584961 3.26416016 C-3.71415288 2.09563235 -1.86127657 1.03708728 0 0 Z M-10 12 C-10.6496875 13.36125 -10.6496875 13.36125 -11.3125 14.75 C-12.70517271 17.43218449 -14.11112757 19.66139605 -16 22 C-13.69 21.34 -11.38 20.68 -9 20 C-9 17.36 -9 14.72 -9 12 C-9.33 12 -9.66 12 -10 12 Z M-17 22 C-17.66 23.65 -18.32 25.3 -19 27 C-18.01 26.34 -17.02 25.68 -16 25 C-16.33 24.01 -16.66 23.02 -17 22 Z M-15 29 C-15.66 30.32 -16.32 31.64 -17 33 C-16.01 32.34 -15.02 31.68 -14 31 C-14.33 30.34 -14.66 29.68 -15 29 Z M-141.67138672 87.46875 C-152.48486976 99.93147798 -156.55138997 116.88715974 -156 133 C-155.20078125 132.98839844 -154.4015625 132.97679687 -153.578125 132.96484375 C-145.99189461 132.90251557 -138.54742488 133.23845803 -131 134 C-130.773125 133.36835938 -130.54625 132.73671875 -130.3125 132.0859375 C-129 130 -129 130 -126.6875 129.1640625 C-125.800625 128.98617187 -124.91375 128.80828125 -124 128.625 C-121.31764762 127.98046741 -121.31764762 127.98046741 -119 127 C-117.43285805 124.13245966 -117.43285805 124.13245966 -117 121 C-116.02418241 119.64886795 -115.02970259 118.31053056 -114 117 C-114 116.34 -114 115.68 -114 115 C-114.99 114.505 -114.99 114.505 -116 114 C-116 113.34 -116 112.68 -116 112 C-115.41863281 111.98324219 -114.83726562 111.96648437 -114.23828125 111.94921875 C-110.67862173 110.43962492 -109.75148864 107.14374076 -108.1875 103.8125 C-105.23330151 97.88386878 -102.64977143 93.72884914 -97 90 C-96.34 90 -95.68 90 -95 90 C-95.51691406 90.60328125 -96.03382813 91.2065625 -96.56640625 91.828125 C-97.22511719 92.62734375 -97.88382813 93.4265625 -98.5625 94.25 C-99.22378906 95.03890625 -99.88507813 95.8278125 -100.56640625 96.640625 C-102.257 98.87304376 -102.257 98.87304376 -101.71484375 101.296875 C-101.47894531 101.85890625 -101.24304688 102.4209375 -101 103 C-96.88911009 101.62970336 -95.69996327 98.8210061 -93.5 95.3125 C-88.82318195 88.07735577 -83.73363572 81.31415706 -78.30957031 74.62695312 C-77.050326 73.06252283 -75.81751436 71.47692788 -74.5859375 69.890625 C-70.62616532 64.85586313 -66.94845184 61.0700639 -61.6640625 57.48046875 C-58.71250762 54.8545549 -58.03124169 51.73825112 -57 48 C-89.58951376 46.22239016 -120.30996906 64.13734273 -141.67138672 87.46875 Z M-39.2265625 61.43359375 C-39.70254883 62.0457373 -40.17853516 62.65788086 -40.66894531 63.28857422 C-41.79243229 64.73311636 -42.96529838 66.13905209 -44.1484375 67.53515625 C-48.83421012 73.11026939 -52.8418121 79.12309684 -56.90966797 85.15161133 C-60.54575439 90.48321926 -64.50267981 95.36093046 -69 100 C-69.33 99.01 -69.66 98.02 -70 97 C-70.309375 97.928125 -70.61875 98.85625 -70.9375 99.8125 C-73.43547778 105.65682537 -77.92241314 110.20867023 -82 115 C-90.77545489 124.43006834 -90.77545489 124.43006834 -95 136 C-93.33220467 138.501693 -92.5737662 139.59469208 -90 141 C-85.96669819 141.43532386 -82.04079478 141.29000919 -78 141 C-78 140.01 -78 139.02 -78 138 C-77.42491699 138.16443604 -76.84983398 138.32887207 -76.25732422 138.49829102 C-74.02270782 138.994953 -72.16414675 139.08632097 -69.8828125 139.02734375 C-69.11066406 139.01509766 -68.33851563 139.00285156 -67.54296875 138.99023438 C-65.93870804 138.95524646 -64.33452997 138.91622307 -62.73046875 138.87304688 C-58.09313458 138.80746062 -54.317295 139.05789394 -50 141 C-49.67 141.66 -49.34 142.32 -49 143 C-49.68707031 142.83242187 -50.37414062 142.66484375 -51.08203125 142.4921875 C-51.98308594 142.28851563 -52.88414062 142.08484375 -53.8125 141.875 C-54.70582031 141.66617188 -55.59914063 141.45734375 -56.51953125 141.2421875 C-59.25246634 140.71119478 -59.25246634 140.71119478 -62 143 C-62 143.66 -62 144.32 -62 145 C-57.4794663 145.33748053 -52.95853055 145.66924739 -48.4375 146 C-47.16068359 146.09539062 -45.88386719 146.19078125 -44.56835938 146.2890625 C-43.32763672 146.37929687 -42.08691406 146.46953125 -40.80859375 146.5625 C-39.10401001 146.68818359 -39.10401001 146.68818359 -37.36499023 146.81640625 C-33.89682271 147.00562935 -30.47232118 147.09944853 -27 147 C-22.10844726 142.10844726 -23.08793396 123.66274269 -22.92675781 116.94921875 C-22.94520223 114.11072058 -22.99407101 111.27521834 -23.0625 108.4375 C-23.32875715 96.89707026 -21.97883355 85.71367587 -20.42211914 74.30444336 C-19.49740517 67.48389867 -18.75579044 60.89128856 -19 54 C-28.86608073 49.5524951 -33.15264945 53.92442364 -39.2265625 61.43359375 Z M-117.9375 166.25 C-119.59906977 169.03016569 -119.59906977 169.03016569 -121 172 C-122.15808867 173.88031028 -123.32429425 175.75565463 -124.5 177.625 C-125.34102999 179.07890822 -126.17742681 180.53557045 -127 182 C-102.00081757 198.64146759 -73.15322881 209.58748277 -42.64428711 204.02026367 C-37.89823324 203.06157855 -33.4519178 201.92109023 -29 200 C-27.74323623 190.01321644 -27.90632835 180.04368267 -28 170 C-46.47159152 166.41747675 -65.08322448 163.50476261 -83.94067383 164.00952148 C-89.64166913 164.13068649 -94.96698188 163.64127059 -100.6003418 162.78051758 C-110.29245055 161.01479991 -110.29245055 161.01479991 -117.9375 166.25 Z M-8 169 C-10.38535351 177.81728886 -10.56135115 186.02223092 -9 195 C-7.02 194.01 -5.04 193.02 -3 192 C-3.33 191.01 -3.66 190.02 -4 189 C-2.6078125 188.87625 -2.6078125 188.87625 -1.1875 188.75 C2.06621197 188.34620287 2.06621197 188.34620287 3.4375 186.0625 C5.73062617 183.03557345 8.40236567 182.81455872 12 182 C12 181.01 12 180.02 12 179 C12.845625 178.979375 13.69125 178.95875 14.5625 178.9375 C19.3774229 177.62433921 21.76476667 174.66595966 25 171 C21.34125624 169.83502686 17.94401651 169.93540775 14.125 170 C6.69717518 170.05808661 -0.59580886 169.63888244 -8 169 Z " fill="#48C2F9" transform="translate(328,73)"/>
<path d="M0 0 C0.66 0 1.32 0 2 0 C6 6.75 6 6.75 6 9 C2.83884224 7.63016497 2.0072908 7.0109362 0 4 C0 2.68 0 1.36 0 0 Z " fill="#48C2F9" transform="translate(365,163)"/>
<path d="M0 0 C0.66 0.66 1.32 1.32 2 2 C1.04882866 3.1725131 0.08882991 4.33787015 -0.875 5.5 C-1.40867188 6.1496875 -1.94234375 6.799375 -2.4921875 7.46875 C-2.98976562 7.9740625 -3.48734375 8.479375 -4 9 C-4.66 9 -5.32 9 -6 9 C-4.68775452 5.06326356 -3.08089673 2.77280706 0 0 Z " fill="#48C2F9" transform="translate(182,134)"/>
<path d="M0 0 C1.98 0.495 1.98 0.495 4 1 C3.67 1.99 3.34 2.98 3 4 C1.68 3.67 0.36 3.34 -1 3 C-0.67 2.01 -0.34 1.02 0 0 Z " fill="#48C2F9" transform="translate(377,237)"/>
<path d="M0 0 C0.99 0.33 1.98 0.66 3 1 C2.34 2.32 1.68 3.64 1 5 C0.34 5 -0.32 5 -1 5 C-0.67 3.35 -0.34 1.7 0 0 Z " fill="#48C2F9" transform="translate(242,149)"/>
<path d="M0 0 C0.99 0 1.98 0 3 0 C3 1.32 3 2.64 3 4 C2.01 3.67 1.02 3.34 0 3 C0 2.01 0 1.02 0 0 Z " fill="#48C2F9" transform="translate(302,309)"/>
<path d="M0 0 C1.32 0 2.64 0 4 0 C4 0.66 4 1.32 4 2 C2.35 2 0.7 2 -1 2 C-0.67 1.34 -0.34 0.68 0 0 Z " fill="#48C2F9" transform="translate(290,216)"/>
<path d="M0 0 C0.99 0.33 1.98 0.66 3 1 C1.02 1.99 1.02 1.99 -1 3 C-0.67 2.01 -0.34 1.02 0 0 Z " fill="#48C2F9" transform="translate(244,209)"/>
<path d="M0 0 C0.66 0 1.32 0 2 0 C1.67 1.32 1.34 2.64 1 4 C0.67 2.68 0.34 1.36 0 0 Z " fill="#48C2F9" transform="translate(208,190)"/>
<path d="M0 0 C0.66 0 1.32 0 2 0 C1.67 0.99 1.34 1.98 1 3 C0.67 2.01 0.34 1.02 0 0 Z " fill="#48C2F9" transform="translate(328,181)"/>
</svg>
